<svg id="Layer_1" data-name="Layer 1" xmlns="http://www.w3.org/2000/svg" viewBox="0 0 260.86 48.48"><defs><style>.cls-1{fill:#fe724c;}.cls-2{fill:#ffc529;}</style></defs><title>pemweb-logo</title><path class="cls-1" d="M43.13,59.79V15.12H68.05v6.17H50.39V32.42H68.05V38.8H50.39v21Z" transform="translate(-43.13 -12.5)"/><path class="cls-1" d="M71.68,45.36a15.06,15.06,0,0,1,4.67-11A15.4,15.4,0,0,1,81.47,31a16.67,16.67,0,0,1,12.22,0,15.44,15.44,0,0,1,5.17,3.42,15.17,15.17,0,0,1,3.48,5,14.84,14.84,0,0,1,1.19,5.89,15.44,15.44,0,0,1-1.17,6,14.82,14.82,0,0,1-3.43,5,16.67,16.67,0,0,1-5.28,3.47A16.2,16.2,0,0,1,87.54,61a16,16,0,0,1-6-1.17,16.07,16.07,0,0,1-8.63-8.47A15.2,15.2,0,0,1,71.68,45.36Zm24.87.06A9.66,9.66,0,0,0,94,38.6a8.6,8.6,0,0,0-12.68,0,9.66,9.66,0,0,0-2.6,6.82,9.64,9.64,0,0,0,2.6,6.82,8.59,8.59,0,0,0,12.67,0A9.61,9.61,0,0,0,96.55,45.42Z" transform="translate(-43.13 -12.5)"/><path class="cls-1" d="M106.85,45.36a15.07,15.07,0,0,1,1.21-6A15.72,15.72,0,0,1,116.65,31a16.22,16.22,0,0,1,6.07-1.16A16.45,16.45,0,0,1,128.87,31a16.25,16.25,0,0,1,8.65,8.45,15,15,0,0,1,1.19,5.89,15.45,15.45,0,0,1-1.18,6,14.68,14.68,0,0,1-3.43,5,16.67,16.67,0,0,1-5.28,3.47,16.15,16.15,0,0,1-6.1,1.17A16,16,0,0,1,108,51.34,15.2,15.2,0,0,1,106.85,45.36Zm24.87.06a9.7,9.7,0,0,0-2.59-6.82,8.6,8.6,0,0,0-12.68,0,9.62,9.62,0,0,0-2.61,6.82,9.61,9.61,0,0,0,2.61,6.82,8.58,8.58,0,0,0,12.66,0A9.61,9.61,0,0,0,131.72,45.42Z" transform="translate(-43.13 -12.5)"/><path class="cls-1" d="M164.76,12.5h6.62V59.79h-6.62V56A11,11,0,0,1,155.21,61a12,12,0,0,1-9.66-4.19Q142,52.59,142,45.3q0-6.93,3.6-11.18a12.71,12.71,0,0,1,15.45-2.78,8.73,8.73,0,0,1,3.68,4.26Zm.18,32.74a10.62,10.62,0,0,0-2.09-7,7.18,7.18,0,0,0-5.84-2.5,7.28,7.28,0,0,0-5.91,2.58A10.86,10.86,0,0,0,149,45.48q0,4.6,2.08,7.11a7.86,7.86,0,0,0,11.68-.2A10.85,10.85,0,0,0,164.94,45.24Z" transform="translate(-43.13 -12.5)"/><path class="cls-2" d="M179.52,59.79V15.12h7.26V53.29H203v6.5Z" transform="translate(-43.13 -12.5)"/><path class="cls-2" d="M234,59.79h-6.62V56A11,11,0,0,1,217.83,61a12,12,0,0,1-9.65-4.19q-3.52-4.2-3.53-11.49,0-6.93,3.6-11.18a12.73,12.73,0,0,1,15.46-2.78,8.71,8.71,0,0,1,3.67,4.26V30.87H234Zm-6.43-14.55a10.62,10.62,0,0,0-2.09-7,8.06,8.06,0,0,0-11.75.08,10.86,10.86,0,0,0-2.15,7.15q0,4.6,2.07,7.11a7.84,7.84,0,0,0,11.67-.21A10.83,10.83,0,0,0,227.57,45.24Z" transform="translate(-43.13 -12.5)"/><path class="cls-2" d="M241.6,59.79V30.87h6.22V35.6a12.47,12.47,0,0,1,4.67-4.37A14.29,14.29,0,0,1,259,29.86a13.45,13.45,0,0,1,5.51,1,8,8,0,0,1,3.55,3,8.37,8.37,0,0,1,1.1,2.77,31.54,31.54,0,0,1,.33,5.56V59.79h-6.68V44.93q0-5.7-1.39-7.58t-4.92-1.88a9.61,9.61,0,0,0-4.14.86,6.81,6.81,0,0,0-2.85,2.41,6.49,6.49,0,0,0-1,2.67,32.23,32.23,0,0,0-.29,5.2V59.79Z" transform="translate(-43.13 -12.5)"/><path class="cls-2" d="M297.37,12.5H304V59.79h-6.62V56A11,11,0,0,1,287.82,61a12,12,0,0,1-9.66-4.19q-3.53-4.2-3.53-11.49,0-6.93,3.6-11.18a12.73,12.73,0,0,1,15.46-2.78,8.73,8.73,0,0,1,3.68,4.26Zm.18,32.74a10.62,10.62,0,0,0-2.09-7,7.19,7.19,0,0,0-5.84-2.5,7.28,7.28,0,0,0-5.91,2.58,10.86,10.86,0,0,0-2.15,7.15q0,4.6,2.07,7.11a7.87,7.87,0,0,0,11.69-.2A10.85,10.85,0,0,0,297.55,45.24Z" transform="translate(-43.13 -12.5)"/></svg>